<svg width="100" height="100" viewBox="0 0 100 100" fill="none" xmlns="http://www.w3.org/2000/svg">
<g clip-path="url(#clip0_1_2)">
<path d="M11.6 68.04C11.28 68.2 11.0133 68.28 10.8 68.28C10.5333 68.28 10.2933 68.1733 10.08 67.96C9.92 67.7467 9.84 67.4533 9.84 67.08V56.6C9.84 56.0133 9.92 55.5867 10.08 55.32C10.2933 55.0533 10.6667 54.8133 11.2 54.6L29.36 47.08L11.2 39.56C10.72 39.4 10.3733 39.1867 10.16 38.92C9.94667 38.6533 9.84 38.2 9.84 37.56V27.32C9.84 26.9467 9.92 26.6533 10.08 26.44C10.2933 26.2267 10.5333 26.12 10.8 26.12C11.0133 26.12 11.28 26.2 11.6 26.36L46.88 41.88C47.36 42.1467 47.7067 42.44 47.92 42.76C48.1333 43.08 48.24 43.5333 48.24 44.12V50.28C48.24 50.8667 48.1333 51.32 47.92 51.64C47.7067 51.96 47.36 52.2533 46.88 52.52L11.6 68.04Z" fill="#4E45D0"/>
<path d="M55.6294 81.88C54.1894 81.88 53.2027 81.56 52.6694 80.92C52.1894 80.3333 51.9494 79.3733 51.9494 78.04V74.04C51.9494 72.7067 52.1894 71.72 52.6694 71.08C53.2027 70.4933 54.1894 70.2 55.6294 70.2H85.9494C87.3894 70.2 88.376 70.4933 88.9094 71.08C89.4427 71.72 89.7094 72.7067 89.7094 74.04V78.04C89.7094 79.3733 89.4427 80.3333 88.9094 80.92C88.376 81.56 87.3894 81.88 85.9494 81.88H55.6294Z" fill="#8E8CA3"/>
</g>
<defs>
<clipPath id="clip0_1_2">
<rect width="100" height="100" fill="white"/>
</clipPath>
</defs>
</svg>
